<?xml version="1.0" encoding="UTF-8" standalone="no"?>
<svg
   xmlns:dc="http://purl.org/dc/elements/1.1/"
   xmlns:cc="http://creativecommons.org/ns#"
   xmlns:rdf="http://www.w3.org/1999/02/22-rdf-syntax-ns#"
   xmlns:svg="http://www.w3.org/2000/svg"
   xmlns="http://www.w3.org/2000/svg"
   xmlns:sodipodi="http://sodipodi.sourceforge.net/DTD/sodipodi-0.dtd"
   xmlns:inkscape="http://www.inkscape.org/namespaces/inkscape"
   width="210mm"
   viewBox="0 0 595.27559 841.88976"
   height="297mm"
   version="1.1"
   id="svg211"
   sodipodi:docname="bun_angle.svg"
   inkscape:version="0.92.4 5da689c313, 2019-01-14">
  <metadata
     id="metadata215">
    <rdf:RDF>
      <cc:Work
         rdf:about="">
        <dc:format>image/svg+xml</dc:format>
        <dc:type
           rdf:resource="http://purl.org/dc/dcmitype/StillImage" />
        <dc:title>gl2ps_renderer figure</dc:title>
      </cc:Work>
    </rdf:RDF>
  </metadata>
  <sodipodi:namedview
     pagecolor="#ffffff"
     bordercolor="#666666"
     borderopacity="1"
     objecttolerance="10"
     gridtolerance="10"
     guidetolerance="10"
     inkscape:pageopacity="0"
     inkscape:pageshadow="2"
     inkscape:window-width="1366"
     inkscape:window-height="768"
     id="namedview213"
     showgrid="false"
     inkscape:zoom="0.64294968"
     inkscape:cx="360.77618"
     inkscape:cy="905.23175"
     inkscape:window-x="0"
     inkscape:window-y="0"
     inkscape:window-maximized="0"
     inkscape:current-layer="svg211"
     units="mm" />
  <title
     id="title2">gl2ps_renderer figure</title>
  <desc
     id="desc4">
Creator: GL2PS 1.4.0, (C) 1999-2017 C. Geuzaine
For: Octave
CreationDate: Thu Mar 12 09:52:19 2020
</desc>
  <defs
     id="defs6">
    <clipPath
       id="cp00576432">
      <polygon
         id="polygon12"
         points="576,0 0,0 0,432 576,432 " />
    </clipPath>
  </defs>
  <polygon
     points="521.28,32.4 74.88,32.4 74.88,384.48 521.28,384.48 "
     id="polygon15"
     style="fill:#ffffff;shape-rendering:crispEdges"
     transform="translate(6.9989925,13.280185)" />
  <polyline
     points="74.88,384.48 74.88,380.015"
     id="polyline17"
     style="fill:none;stroke:#262626;stroke-width:0.5;stroke-linecap:butt;stroke-linejoin:miter"
     transform="translate(6.9989925,13.280185)" />
  <polyline
     points="74.88,32.4 74.88,36.865"
     id="polyline19"
     style="fill:none;stroke:#262626;stroke-width:0.5;stroke-linecap:butt;stroke-linejoin:miter"
     transform="translate(6.9989925,13.280185)" />
  <polyline
     points="186.48,384.48 186.48,380.015"
     id="polyline21"
     style="fill:none;stroke:#262626;stroke-width:0.5;stroke-linecap:butt;stroke-linejoin:miter"
     transform="translate(6.9989925,13.280185)" />
  <polyline
     points="186.48,32.4 186.48,36.865"
     id="polyline23"
     style="fill:none;stroke:#262626;stroke-width:0.5;stroke-linecap:butt;stroke-linejoin:miter"
     transform="translate(6.9989925,13.280185)" />
  <polyline
     points="298.08,384.48 298.08,380.015"
     id="polyline25"
     style="fill:none;stroke:#262626;stroke-width:0.5;stroke-linecap:butt;stroke-linejoin:miter"
     transform="translate(6.9989925,13.280185)" />
  <polyline
     points="298.08,32.4 298.08,36.865"
     id="polyline27"
     style="fill:none;stroke:#262626;stroke-width:0.5;stroke-linecap:butt;stroke-linejoin:miter"
     transform="translate(6.9989925,13.280185)" />
  <polyline
     points="409.68,384.48 409.68,380.015"
     id="polyline29"
     style="fill:none;stroke:#262626;stroke-width:0.5;stroke-linecap:butt;stroke-linejoin:miter"
     transform="translate(6.9989925,13.280185)" />
  <polyline
     points="409.68,32.4 409.68,36.865"
     id="polyline31"
     style="fill:none;stroke:#262626;stroke-width:0.5;stroke-linecap:butt;stroke-linejoin:miter"
     transform="translate(6.9989925,13.280185)" />
  <polyline
     points="521.28,384.48 521.28,380.015"
     id="polyline33"
     style="fill:none;stroke:#262626;stroke-width:0.5;stroke-linecap:butt;stroke-linejoin:miter"
     transform="translate(6.9989925,13.280185)" />
  <polyline
     points="521.28,32.4 521.28,36.865"
     id="polyline35"
     style="fill:none;stroke:#262626;stroke-width:0.5;stroke-linecap:butt;stroke-linejoin:miter"
     transform="translate(6.9989925,13.280185)" />
  <text
     font-weight="normal"
     font-size="10"
     xml:space="preserve"
     font-style="normal"
     id="text39"
     style="font-style:normal;font-variant:normal;font-weight:normal;font-stretch:normal;font-size:10px;font-family:'Latin Modern Roman';-inkscape-font-specification:'Latin Modern Roman, '"
     x="78.87899"
     y="413.26221">     <tspan
   y="413.26221"
   x="78.87899"
   id="tspan37"
   style="font-style:normal;font-variant:normal;font-weight:normal;font-stretch:normal;font-size:10px;font-family:'Latin Modern Roman';-inkscape-font-specification:'Latin Modern Roman, ';fill:#262626">0</tspan>   </text>
  <text
     font-weight="normal"
     font-size="10"
     xml:space="preserve"
     font-style="normal"
     id="text43"
     style="font-style:normal;font-variant:normal;font-weight:normal;font-stretch:normal;font-size:10px;font-family:'Latin Modern Roman';-inkscape-font-specification:'Latin Modern Roman, '"
     x="187.47899"
     y="413.26221">     <tspan
   y="413.26221"
   x="187.47899 193.47899"
   id="tspan41"
   style="font-style:normal;font-variant:normal;font-weight:normal;font-stretch:normal;font-size:10px;font-family:'Latin Modern Roman';-inkscape-font-specification:'Latin Modern Roman, ';fill:#262626">50</tspan>   </text>
  <text
     font-weight="normal"
     font-size="10"
     xml:space="preserve"
     font-style="normal"
     id="text47"
     style="font-style:normal;font-variant:normal;font-weight:normal;font-stretch:normal;font-size:10px;font-family:'Latin Modern Roman';-inkscape-font-specification:'Latin Modern Roman, '"
     x="296.07898"
     y="413.26221">     <tspan
   y="413.26221"
   x="296.07898 302.07898 308.07898"
   id="tspan45"
   style="font-style:normal;font-variant:normal;font-weight:normal;font-stretch:normal;font-size:10px;font-family:'Latin Modern Roman';-inkscape-font-specification:'Latin Modern Roman, ';fill:#262626">100</tspan>   </text>
  <text
     font-weight="normal"
     font-size="10"
     xml:space="preserve"
     font-style="normal"
     id="text51"
     style="font-style:normal;font-variant:normal;font-weight:normal;font-stretch:normal;font-size:10px;font-family:'Latin Modern Roman';-inkscape-font-specification:'Latin Modern Roman, '"
     x="407.67899"
     y="413.26221">     <tspan
   y="413.26221"
   x="407.67899 413.67899 419.67899"
   id="tspan49"
   style="font-style:normal;font-variant:normal;font-weight:normal;font-stretch:normal;font-size:10px;font-family:'Latin Modern Roman';-inkscape-font-specification:'Latin Modern Roman, ';fill:#262626">150</tspan>   </text>
  <text
     font-weight="normal"
     font-size="10"
     xml:space="preserve"
     font-style="normal"
     id="text55"
     style="font-style:normal;font-variant:normal;font-weight:normal;font-stretch:normal;font-size:10px;font-family:'Latin Modern Roman';-inkscape-font-specification:'Latin Modern Roman, '"
     x="519.27905"
     y="413.26221">     <tspan
   y="413.26221"
   x="519.27905 525.27905 531.27905"
   id="tspan53"
   style="font-style:normal;font-variant:normal;font-weight:normal;font-stretch:normal;font-size:10px;font-family:'Latin Modern Roman';-inkscape-font-specification:'Latin Modern Roman, ';fill:#262626">200</tspan>   </text>
  <polyline
     points="74.88,384.48 79.348,384.48"
     id="polyline57"
     style="fill:none;stroke:#262626;stroke-width:0.5;stroke-linecap:butt;stroke-linejoin:miter"
     transform="translate(6.9989925,13.280185)" />
  <polyline
     points="521.28,384.48 516.812,384.48"
     id="polyline59"
     style="fill:none;stroke:#262626;stroke-width:0.5;stroke-linecap:butt;stroke-linejoin:miter"
     transform="translate(6.9989925,13.280185)" />
  <polyline
     points="74.88,314.064 79.348,314.064"
     id="polyline61"
     style="fill:none;stroke:#262626;stroke-width:0.5;stroke-linecap:butt;stroke-linejoin:miter"
     transform="translate(6.9989925,13.280185)" />
  <polyline
     points="521.28,314.064 516.812,314.064"
     id="polyline63"
     style="fill:none;stroke:#262626;stroke-width:0.5;stroke-linecap:butt;stroke-linejoin:miter"
     transform="translate(6.9989925,13.280185)" />
  <polyline
     points="74.88,243.648 79.348,243.648"
     id="polyline65"
     style="fill:none;stroke:#262626;stroke-width:0.5;stroke-linecap:butt;stroke-linejoin:miter"
     transform="translate(6.9989925,13.280185)" />
  <polyline
     points="521.28,243.648 516.812,243.648"
     id="polyline67"
     style="fill:none;stroke:#262626;stroke-width:0.5;stroke-linecap:butt;stroke-linejoin:miter"
     transform="translate(6.9989925,13.280185)" />
  <polyline
     points="74.88,173.232 79.348,173.232"
     id="polyline69"
     style="fill:none;stroke:#262626;stroke-width:0.5;stroke-linecap:butt;stroke-linejoin:miter"
     transform="translate(6.9989925,13.280185)" />
  <polyline
     points="521.28,173.232 516.812,173.232"
     id="polyline71"
     style="fill:none;stroke:#262626;stroke-width:0.5;stroke-linecap:butt;stroke-linejoin:miter"
     transform="translate(6.9989925,13.280185)" />
  <polyline
     points="74.88,102.816 79.348,102.816"
     id="polyline73"
     style="fill:none;stroke:#262626;stroke-width:0.5;stroke-linecap:butt;stroke-linejoin:miter"
     transform="translate(6.9989925,13.280185)" />
  <polyline
     points="521.28,102.816 516.812,102.816"
     id="polyline75"
     style="fill:none;stroke:#262626;stroke-width:0.5;stroke-linecap:butt;stroke-linejoin:miter"
     transform="translate(6.9989925,13.280185)" />
  <polyline
     points="74.88,32.4 79.348,32.4"
     id="polyline77"
     style="fill:none;stroke:#262626;stroke-width:0.5;stroke-linecap:butt;stroke-linejoin:miter"
     transform="translate(6.9989925,13.280185)" />
  <polyline
     points="521.28,32.4 516.812,32.4"
     id="polyline79"
     style="fill:none;stroke:#262626;stroke-width:0.5;stroke-linecap:butt;stroke-linejoin:miter"
     transform="translate(6.9989925,13.280185)" />
  <text
     font-weight="normal"
     font-size="10"
     xml:space="preserve"
     font-style="normal"
     id="text83"
     style="font-style:normal;font-variant:normal;font-weight:normal;font-stretch:normal;font-size:10px;font-family:'Latin Modern Roman';-inkscape-font-specification:'Latin Modern Roman, '"
     x="70.874496"
     y="401.76025">     <tspan
   y="401.76025"
   x="70.874496"
   id="tspan81"
   style="font-style:normal;font-variant:normal;font-weight:normal;font-stretch:normal;font-size:10px;font-family:'Latin Modern Roman';-inkscape-font-specification:'Latin Modern Roman, ';fill:#262626">0</tspan>   </text>
  <text
     font-weight="normal"
     font-size="10"
     xml:space="preserve"
     font-style="normal"
     id="text87"
     style="font-style:normal;font-variant:normal;font-weight:normal;font-stretch:normal;font-size:10px;font-family:'Latin Modern Roman';-inkscape-font-specification:'Latin Modern Roman, '"
     x="55.874493"
     y="331.34424">     <tspan
   y="331.34424"
   x="55.874493 61.874493 64.874496 70.874496"
   id="tspan85"
   style="font-style:normal;font-variant:normal;font-weight:normal;font-stretch:normal;font-size:10px;font-family:'Latin Modern Roman';-inkscape-font-specification:'Latin Modern Roman, ';fill:#262626">0.05</tspan>   </text>
  <text
     font-weight="normal"
     font-size="10"
     xml:space="preserve"
     font-style="normal"
     id="text91"
     style="font-style:normal;font-variant:normal;font-weight:normal;font-stretch:normal;font-size:10px;font-family:'Latin Modern Roman';-inkscape-font-specification:'Latin Modern Roman, '"
     x="61.874493"
     y="260.92822">     <tspan
   y="260.92822"
   x="61.874493 67.874496 70.874496"
   id="tspan89"
   style="font-style:normal;font-variant:normal;font-weight:normal;font-stretch:normal;font-size:10px;font-family:'Latin Modern Roman';-inkscape-font-specification:'Latin Modern Roman, ';fill:#262626">0.1</tspan>   </text>
  <text
     font-weight="normal"
     font-size="10"
     xml:space="preserve"
     font-style="normal"
     id="text95"
     style="font-style:normal;font-variant:normal;font-weight:normal;font-stretch:normal;font-size:10px;font-family:'Latin Modern Roman';-inkscape-font-specification:'Latin Modern Roman, '"
     x="55.874493"
     y="190.51219">     <tspan
   y="190.51219"
   x="55.874493 61.874493 64.874496 70.874496"
   id="tspan93"
   style="font-style:normal;font-variant:normal;font-weight:normal;font-stretch:normal;font-size:10px;font-family:'Latin Modern Roman';-inkscape-font-specification:'Latin Modern Roman, ';fill:#262626">0.15</tspan>   </text>
  <text
     font-weight="normal"
     font-size="10"
     xml:space="preserve"
     font-style="normal"
     id="text99"
     style="font-style:normal;font-variant:normal;font-weight:normal;font-stretch:normal;font-size:10px;font-family:'Latin Modern Roman';-inkscape-font-specification:'Latin Modern Roman, '"
     x="61.874493"
     y="120.09617">     <tspan
   y="120.09617"
   x="61.874493 67.874496 70.874496"
   id="tspan97"
   style="font-style:normal;font-variant:normal;font-weight:normal;font-stretch:normal;font-size:10px;font-family:'Latin Modern Roman';-inkscape-font-specification:'Latin Modern Roman, ';fill:#262626">0.2</tspan>   </text>
  <text
     font-weight="normal"
     font-size="10"
     xml:space="preserve"
     font-style="normal"
     id="text103"
     style="font-style:normal;font-variant:normal;font-weight:normal;font-stretch:normal;font-size:10px;font-family:'Latin Modern Roman';-inkscape-font-specification:'Latin Modern Roman, '"
     x="55.874493"
     y="49.680191">     <tspan
   y="49.680191"
   x="55.874493 61.874493 64.874496 70.874496"
   id="tspan101"
   style="font-style:normal;font-variant:normal;font-weight:normal;font-stretch:normal;font-size:10px;font-family:'Latin Modern Roman';-inkscape-font-specification:'Latin Modern Roman, ';fill:#262626">0.25</tspan>   </text>
  <polyline
     points="74.88,384.48 521.28,384.48"
     id="polyline105"
     style="fill:none;stroke:#262626;stroke-width:0.5;stroke-linecap:square;stroke-linejoin:miter;stroke-dasharray:16, 0"
     transform="translate(6.9989925,13.280185)" />
  <polyline
     points="74.88,32.4 521.28,32.4"
     id="polyline107"
     style="fill:none;stroke:#262626;stroke-width:0.5;stroke-linecap:square;stroke-linejoin:miter;stroke-dasharray:16, 0"
     transform="translate(6.9989925,13.280185)" />
  <polyline
     points="74.88,384.48 74.88,32.4"
     id="polyline109"
     style="fill:none;stroke:#262626;stroke-width:0.5;stroke-linecap:square;stroke-linejoin:miter;stroke-dasharray:16, 0"
     transform="translate(6.9989925,13.280185)" />
  <polyline
     points="521.28,384.48 521.28,32.4"
     id="polyline111"
     style="fill:none;stroke:#262626;stroke-width:0.5;stroke-linecap:square;stroke-linejoin:miter;stroke-dasharray:16, 0"
     transform="translate(6.9989925,13.280185)" />
  <text
     font-weight="normal"
     transform="rotate(-90)"
     font-size="11"
     xml:space="preserve"
     font-style="normal"
     id="text115"
     style="font-style:normal;font-variant:normal;font-weight:normal;font-stretch:normal;font-size:10px;font-family:'Latin Modern Roman';-inkscape-font-specification:'Latin Modern Roman, '"
     x="-247.2202"
     y="50.874493">     <tspan
   y="49.874493"
   x="-247.2202 -244.2202 -240.2202 -234.2202 -228.2202 -222.2202 -216.2202 -210.2202 -204.2202 -202.2202"
   id="tspan113"
   style="font-style:normal;font-variant:normal;font-weight:normal;font-stretch:normal;font-size:10px;font-family:'Latin Modern Roman';-inkscape-font-specification:'Latin Modern Roman, ';fill:#262626">frecuencia</tspan>   </text>
  <text
     font-weight="normal"
     font-size="11"
     xml:space="preserve"
     font-style="normal"
     id="text119"
     style="font-style:normal;font-variant:normal;font-weight:normal;font-stretch:normal;font-size:10px;font-family:'Latin Modern Roman';-inkscape-font-specification:'Latin Modern Roman, '"
     x="249.07899"
     y="430.26221">     <tspan
   y="427.26221"
   x="249.07899 255.07899 261.07901 267.07898 273.07898 275.07898 281.07898 284.07898 290.07898 296.07898 299.07898 305.07898 307.07898 311.07898 317.07898 320.07898 324.07898 330.07898 334.07898 340.07898 346.07898 352.07898 357.07898"
   id="tspan117"
   style="font-style:normal;font-variant:normal;font-weight:normal;font-stretch:normal;font-size:10px;font-family:'Latin Modern Roman';-inkscape-font-specification:'Latin Modern Roman, ';fill:#262626">ángulo de giro (grados)</tspan>   </text>
  <polygon
     points="108.896,382.089 108.896,384.48 113.391,384.48 113.391,382.089 "
     id="polygon121"
     style="fill:#ffffff;shape-rendering:crispEdges"
     transform="translate(6.9989925,13.280185)" />
  <polygon
     points="117.885,377.307 117.885,384.48 122.38,384.48 122.38,377.307 "
     id="polygon123"
     style="fill:#ffffff;shape-rendering:crispEdges"
     transform="translate(6.9989925,13.280185)" />
  <polygon
     points="122.38,372.525 122.38,384.48 126.875,384.48 126.875,372.525 "
     id="polygon125"
     style="fill:#ffffff;shape-rendering:crispEdges"
     transform="translate(6.9989925,13.280185)" />
  <polygon
     points="126.875,360.57 126.875,384.48 131.369,384.48 131.369,360.57 "
     id="polygon127"
     style="fill:#ffffff;shape-rendering:crispEdges"
     transform="translate(6.9989925,13.280185)" />
  <polygon
     points="131.369,351.005 131.369,384.48 135.864,384.48 135.864,351.005 "
     id="polygon129"
     style="fill:#ffffff;shape-rendering:crispEdges"
     transform="translate(6.9989925,13.280185)" />
  <polygon
     points="135.864,293.621 135.864,384.48 140.359,384.48 140.359,293.621 "
     id="polygon131"
     style="fill:#ffffff;shape-rendering:crispEdges"
     transform="translate(6.9989925,13.280185)" />
  <polygon
     points="140.359,241.018 140.359,384.48 144.853,384.48 144.853,241.018 "
     id="polygon133"
     style="fill:#ffffff;shape-rendering:crispEdges"
     transform="translate(6.9989925,13.280185)" />
  <polygon
     points="144.853,154.941 144.853,384.48 149.348,384.48 149.348,154.941 "
     id="polygon135"
     style="fill:#ffffff;shape-rendering:crispEdges"
     transform="translate(6.9989925,13.280185)" />
  <polygon
     points="149.348,40.1709 149.348,384.48 153.843,384.48 153.843,40.1709 "
     id="polygon137"
     style="fill:#ffffff;shape-rendering:crispEdges"
     transform="translate(6.9989925,13.280185)" />
  <polygon
     points="153.843,147.767 153.843,384.48 158.338,384.48 158.338,147.767 "
     id="polygon139"
     style="fill:#ffffff;shape-rendering:crispEdges"
     transform="translate(6.9989925,13.280185)" />
  <polygon
     points="158.338,245.8 158.338,384.48 162.832,384.48 162.832,245.8 "
     id="polygon141"
     style="fill:#ffffff;shape-rendering:crispEdges"
     transform="translate(6.9989925,13.280185)" />
  <polygon
     points="162.832,303.185 162.832,384.48 167.327,384.48 167.327,303.185 "
     id="polygon143"
     style="fill:#ffffff;shape-rendering:crispEdges"
     transform="translate(6.9989925,13.280185)" />
  <polygon
     points="167.327,355.788 167.327,384.48 171.822,384.48 171.822,355.788 "
     id="polygon145"
     style="fill:#ffffff;shape-rendering:crispEdges"
     transform="translate(6.9989925,13.280185)" />
  <polygon
     points="171.822,372.525 171.822,384.48 176.316,384.48 176.316,372.525 "
     id="polygon147"
     style="fill:#ffffff;shape-rendering:crispEdges"
     transform="translate(6.9989925,13.280185)" />
  <polygon
     points="176.316,379.698 176.316,384.48 180.811,384.48 180.811,379.698 "
     id="polygon149"
     style="fill:#ffffff;shape-rendering:crispEdges"
     transform="translate(6.9989925,13.280185)" />
  <polygon
     points="185.306,382.089 185.306,384.48 189.8,384.48 189.8,382.089 "
     id="polygon151"
     style="fill:#ffffff;shape-rendering:crispEdges"
     transform="translate(6.9989925,13.280185)" />
  <polygon
     points="203.284,382.089 203.284,384.48 207.779,384.48 207.779,382.089 "
     id="polygon153"
     style="fill:#ffffff;shape-rendering:crispEdges"
     transform="translate(6.9989925,13.280185)" />
  <polygon
     points="212.274,379.698 212.274,384.48 216.769,384.48 216.769,379.698 "
     id="polygon155"
     style="fill:#ffffff;shape-rendering:crispEdges"
     transform="translate(6.9989925,13.280185)" />
  <polygon
     points="248.231,382.089 248.231,384.48 252.726,384.48 252.726,382.089 "
     id="polygon157"
     style="fill:#ffffff;shape-rendering:crispEdges"
     transform="translate(6.9989925,13.280185)" />
  <polygon
     points="270.705,379.698 270.705,384.48 275.2,384.48 275.2,379.698 "
     id="polygon159"
     style="fill:#ffffff;shape-rendering:crispEdges"
     transform="translate(6.9989925,13.280185)" />
  <polygon
     points="414.535,382.089 414.535,384.48 419.03,384.48 419.03,382.089 "
     id="polygon161"
     style="fill:#ffffff;shape-rendering:crispEdges"
     transform="translate(6.9989925,13.280185)" />
  <polyline
     points="113.391,382.089 108.896,382.089 108.896,384.48 113.391,384.48 113.391,382.089"
     id="polyline163"
     style="fill:none;stroke:#000000;stroke-width:0.5;stroke-linecap:butt;stroke-linejoin:miter"
     transform="translate(6.9989925,13.280185)" />
  <polyline
     points="122.38,377.307 117.885,377.307 117.885,384.48 122.38,384.48 122.38,377.307"
     id="polyline165"
     style="fill:none;stroke:#000000;stroke-width:0.5;stroke-linecap:butt;stroke-linejoin:miter"
     transform="translate(6.9989925,13.280185)" />
  <polyline
     points="126.875,372.525 122.38,372.525 122.38,384.48 126.875,384.48 126.875,372.525"
     id="polyline167"
     style="fill:none;stroke:#000000;stroke-width:0.5;stroke-linecap:butt;stroke-linejoin:miter"
     transform="translate(6.9989925,13.280185)" />
  <polyline
     points="131.369,360.57 126.875,360.57 126.875,384.48 131.369,384.48 131.369,360.57"
     id="polyline169"
     style="fill:none;stroke:#000000;stroke-width:0.5;stroke-linecap:butt;stroke-linejoin:miter"
     transform="translate(6.9989925,13.280185)" />
  <polyline
     points="135.864,351.005 131.369,351.005 131.369,384.48 135.864,384.48 135.864,351.005"
     id="polyline171"
     style="fill:none;stroke:#000000;stroke-width:0.5;stroke-linecap:butt;stroke-linejoin:miter"
     transform="translate(6.9989925,13.280185)" />
  <polyline
     points="140.359,293.621 135.864,293.621 135.864,384.48 140.359,384.48 140.359,293.621"
     id="polyline173"
     style="fill:none;stroke:#000000;stroke-width:0.5;stroke-linecap:butt;stroke-linejoin:miter"
     transform="translate(6.9989925,13.280185)" />
  <polyline
     points="144.853,241.018 140.359,241.018 140.359,384.48 144.853,384.48 144.853,241.018"
     id="polyline175"
     style="fill:none;stroke:#000000;stroke-width:0.5;stroke-linecap:butt;stroke-linejoin:miter"
     transform="translate(6.9989925,13.280185)" />
  <polyline
     points="149.348,154.941 144.853,154.941 144.853,384.48 149.348,384.48 149.348,154.941"
     id="polyline177"
     style="fill:none;stroke:#000000;stroke-width:0.5;stroke-linecap:butt;stroke-linejoin:miter"
     transform="translate(6.9989925,13.280185)" />
  <polyline
     points="153.843,40.1709 149.348,40.1709 149.348,384.48 153.843,384.48 153.843,40.1709"
     id="polyline179"
     style="fill:none;stroke:#000000;stroke-width:0.5;stroke-linecap:butt;stroke-linejoin:miter"
     transform="translate(6.9989925,13.280185)" />
  <polyline
     points="158.338,147.767 153.843,147.767 153.843,384.48 158.338,384.48 158.338,147.767"
     id="polyline181"
     style="fill:none;stroke:#000000;stroke-width:0.5;stroke-linecap:butt;stroke-linejoin:miter"
     transform="translate(6.9989925,13.280185)" />
  <polyline
     points="162.832,245.8 158.338,245.8 158.338,384.48 162.832,384.48 162.832,245.8"
     id="polyline183"
     style="fill:none;stroke:#000000;stroke-width:0.5;stroke-linecap:butt;stroke-linejoin:miter"
     transform="translate(6.9989925,13.280185)" />
  <polyline
     points="167.327,303.185 162.832,303.185 162.832,384.48 167.327,384.48 167.327,303.185"
     id="polyline185"
     style="fill:none;stroke:#000000;stroke-width:0.5;stroke-linecap:butt;stroke-linejoin:miter"
     transform="translate(6.9989925,13.280185)" />
  <polyline
     points="171.822,355.788 167.327,355.788 167.327,384.48 171.822,384.48 171.822,355.788"
     id="polyline187"
     style="fill:none;stroke:#000000;stroke-width:0.5;stroke-linecap:butt;stroke-linejoin:miter"
     transform="translate(6.9989925,13.280185)" />
  <polyline
     points="176.316,372.525 171.822,372.525 171.822,384.48 176.316,384.48 176.316,372.525"
     id="polyline189"
     style="fill:none;stroke:#000000;stroke-width:0.5;stroke-linecap:butt;stroke-linejoin:miter"
     transform="translate(6.9989925,13.280185)" />
  <polyline
     points="180.811,379.698 176.316,379.698 176.316,384.48 180.811,384.48 180.811,379.698"
     id="polyline191"
     style="fill:none;stroke:#000000;stroke-width:0.5;stroke-linecap:butt;stroke-linejoin:miter"
     transform="translate(6.9989925,13.280185)" />
  <polyline
     points="189.8,382.089 185.306,382.089 185.306,384.48 189.8,384.48 189.8,382.089"
     id="polyline193"
     style="fill:none;stroke:#000000;stroke-width:0.5;stroke-linecap:butt;stroke-linejoin:miter"
     transform="translate(6.9989925,13.280185)" />
  <polyline
     points="207.779,382.089 203.284,382.089 203.284,384.48 207.779,384.48 207.779,382.089"
     id="polyline195"
     style="fill:none;stroke:#000000;stroke-width:0.5;stroke-linecap:butt;stroke-linejoin:miter"
     transform="translate(6.9989925,13.280185)" />
  <polyline
     points="216.769,379.698 212.274,379.698 212.274,384.48 216.769,384.48 216.769,379.698"
     id="polyline197"
     style="fill:none;stroke:#000000;stroke-width:0.5;stroke-linecap:butt;stroke-linejoin:miter"
     transform="translate(6.9989925,13.280185)" />
  <polyline
     points="252.726,382.089 248.231,382.089 248.231,384.48 252.726,384.48 252.726,382.089"
     id="polyline199"
     style="fill:none;stroke:#000000;stroke-width:0.5;stroke-linecap:butt;stroke-linejoin:miter"
     transform="translate(6.9989925,13.280185)" />
  <polyline
     points="275.2,379.698 270.705,379.698 270.705,384.48 275.2,384.48 275.2,379.698"
     id="polyline201"
     style="fill:none;stroke:#000000;stroke-width:0.5;stroke-linecap:butt;stroke-linejoin:miter"
     transform="translate(6.9989925,13.280185)" />
  <polyline
     points="419.03,382.089 414.535,382.089 414.535,384.48 419.03,384.48 419.03,382.089"
     id="polyline203"
     style="fill:none;stroke:#000000;stroke-width:0.5;stroke-linecap:butt;stroke-linejoin:miter"
     transform="translate(6.9989925,13.280185)" />
  <polyline
     points="74.88,384.48 521.28,384.48"
     id="polyline205"
     style="fill:none;stroke:#000000;stroke-width:0.5;stroke-linecap:butt;stroke-linejoin:round"
     transform="translate(6.9989925,13.280185)" />
</svg>
