<?xml version="1.0" encoding="UTF-8" standalone="no"?><svg xmlns="http://www.w3.org/2000/svg" xmlns:xlink="http://www.w3.org/1999/xlink" contentScriptType="application/ecmascript" contentStyleType="text/css" height="133px" preserveAspectRatio="none" style="width:303px;height:133px;" version="1.1" viewBox="0 0 303 133" width="303px" zoomAndPan="magnify"><defs><filter height="300%" id="f6tdq4tmtcpys" width="300%" x="-1" y="-1"><feGaussianBlur result="blurOut" stdDeviation="2.0"/><feColorMatrix in="blurOut" result="blurOut2" type="matrix" values="0 0 0 0 0 0 0 0 0 0 0 0 0 0 0 0 0 0 .4 0"/><feOffset dx="4.0" dy="4.0" in="blurOut2" result="blurOut3"/><feBlend in="SourceGraphic" in2="blurOut3" mode="normal"/></filter></defs><g><ellipse cx="16" cy="26.5" fill="#000000" filter="url(#f6tdq4tmtcpys)" rx="10" ry="10" style="stroke: none; stroke-width: 1.0;"/><rect fill="#FEFECE" filter="url(#f6tdq4tmtcpys)" height="37.168" rx="12.5" ry="12.5" style="stroke: #A80036; stroke-width: 1.5;" width="124" x="46" y="8"/><text fill="#000000" font-family="sans-serif" font-size="12" lengthAdjust="spacingAndGlyphs" textLength="104" x="56" y="32.0625">estimar resolución</text><rect fill="#FEFECE" filter="url(#f6tdq4tmtcpys)" height="37.168" rx="12.5" ry="12.5" style="stroke: #A80036; stroke-width: 1.5;" width="102" x="190" y="8"/><text fill="#000000" font-family="sans-serif" font-size="12" lengthAdjust="spacingAndGlyphs" textLength="82" x="200" y="32.0625">Second Activity</text><rect fill="#FEFECE" filter="url(#f6tdq4tmtcpys)" height="37.168" rx="12.5" ry="12.5" style="stroke: #A80036; stroke-width: 1.5;" width="89" x="196.5" y="85"/><text fill="#000000" font-family="sans-serif" font-size="12" lengthAdjust="spacingAndGlyphs" textLength="69" x="206.5" y="109.0625">Third Activity</text><ellipse cx="166" cy="103.5" fill="none" filter="url(#f6tdq4tmtcpys)" rx="10" ry="10" style="stroke: #000000; stroke-width: 1.0;"/><ellipse cx="166.5" cy="104" fill="#000000" rx="6" ry="6" style="stroke: none; stroke-width: 1.0;"/><!--MD5=[997d31c7f64e5c1656ba5d8bf3b1f8a2]
link start to estimar resolución--><path d="M26.06,26.5 C30.92,26.5 35.78,26.5 40.64,26.5 " fill="none" id="start-&gt;estimar resolución" style="stroke: #A80036; stroke-width: 1.0;"/><polygon fill="#A80036" points="45.91,26.5,36.91,22.5,40.91,26.5,36.91,30.5,45.91,26.5" style="stroke: #A80036; stroke-width: 1.0;"/><!--MD5=[d793c1d2c51a82c66a5283c0d875c2e4]
link estimar resolución to Second Activity--><path d="M170.08,26.5 C174.9,26.5 179.71,26.5 184.53,26.5 " fill="none" id="estimar resolución-&gt;Second Activity" style="stroke: #A80036; stroke-width: 1.0;"/><polygon fill="#A80036" points="189.75,26.5,180.75,22.5,184.75,26.5,180.75,30.5,189.75,26.5" style="stroke: #A80036; stroke-width: 1.0;"/><!--MD5=[8a67e0603365ae780847bc316118f2ae]
link Second Activity to Third Activity--><path d="M241,45.27 C241,55.55 241,68.58 241,79.62 " fill="none" id="Second Activity-&gt;Third Activity" style="stroke: #A80036; stroke-width: 1.0;"/><polygon fill="#A80036" points="241,84.85,245,75.85,241,79.85,237,75.85,241,84.85" style="stroke: #A80036; stroke-width: 1.0;"/><!--MD5=[98e5836a993643f81365061192e69323]
reverse link end to Third Activity--><path d="M181.31,103.5 C186.37,103.5 191.43,103.5 196.49,103.5 " fill="none" id="end&lt;-Third Activity" style="stroke: #A80036; stroke-width: 1.0;"/><polygon fill="#A80036" points="176.25,103.5,185.25,107.5,181.25,103.5,185.25,99.5,176.25,103.5" style="stroke: #A80036; stroke-width: 1.0;"/><!--MD5=[8dd0ab9f50995bc3725ba2f0bcfa98e8]
@startuml

(*) -> "estimar resolución"
-> "Second Activity"
- -> "Third Activity"
-left-> (*)

@enduml

PlantUML version 1.2019.13(Tue Dec 10 17:18:29 GMT 2019)
(GPL source distribution)
Java Runtime: OpenJDK Runtime Environment
JVM: OpenJDK 64-Bit Server VM
Java Version: 13.0.2+8
Operating System: Linux
Default Encoding: UTF-8
Language: en
Country: US
--></g></svg>