<?xml version="1.0" encoding="UTF-8" standalone="no"?><svg xmlns="http://www.w3.org/2000/svg" xmlns:xlink="http://www.w3.org/1999/xlink" contentScriptType="application/ecmascript" contentStyleType="text/css" height="73px" preserveAspectRatio="none" style="width:1231px;height:73px;" version="1.1" viewBox="0 0 1231 73" width="1231px" zoomAndPan="magnify"><defs/><g><ellipse cx="16" cy="35" fill="#000000" rx="10" ry="10" style="stroke: none; stroke-width: 1.0;"/><rect fill="#F8F8F8" height="37.168" rx="12.5" ry="12.5" style="stroke: #383838; stroke-width: 1.5;" width="124" x="46" y="16.5"/><text fill="#000000" font-family="sans-serif" font-size="12" lengthAdjust="spacingAndGlyphs" textLength="104" x="56" y="40.5625">estimar resolución</text><rect fill="#F8F8F8" height="37.168" rx="12.5" ry="12.5" style="stroke: #383838; stroke-width: 1.5;" width="81" x="190.5" y="16.5"/><text fill="#000000" font-family="sans-serif" font-size="12" lengthAdjust="spacingAndGlyphs" textLength="61" x="200.5" y="40.5625">filtrado mls</text><rect fill="#F8F8F8" height="54.3359" rx="12.5" ry="12.5" style="stroke: #383838; stroke-width: 1.5;" width="186" x="292" y="8"/><text fill="#000000" font-family="sans-serif" font-size="12" lengthAdjust="spacingAndGlyphs" textLength="166" x="302" y="32.0625">eliminar puntos con normales</text><text fill="#000000" font-family="sans-serif" font-size="12" lengthAdjust="spacingAndGlyphs" textLength="93" x="338.5" y="49.2305">casi ortogonales</text><rect fill="#F8F8F8" height="54.3359" rx="12.5" ry="12.5" style="stroke: #383838; stroke-width: 1.5;" width="150" x="498" y="8"/><text fill="#000000" font-family="sans-serif" font-size="12" lengthAdjust="spacingAndGlyphs" textLength="130" x="508" y="32.0625">triangulación Delaunay,</text><text fill="#000000" font-family="sans-serif" font-size="12" lengthAdjust="spacingAndGlyphs" textLength="101" x="522.5" y="49.2305">proyectado en z=0</text><rect fill="#F8F8F8" height="37.168" rx="12.5" ry="12.5" style="stroke: #383838; stroke-width: 1.5;" width="155" x="668.5" y="16.5"/><text fill="#000000" font-family="sans-serif" font-size="12" lengthAdjust="spacingAndGlyphs" textLength="135" x="678.5" y="40.5625">eliminar aristas grandes</text><rect fill="#F8F8F8" height="37.168" rx="12.5" ry="12.5" style="stroke: #383838; stroke-width: 1.5;" width="158" x="844" y="16.5"/><text fill="#000000" font-family="sans-serif" font-size="12" lengthAdjust="spacingAndGlyphs" textLength="138" x="854" y="40.5625">eliminar puntos de borde</text><rect fill="#F8F8F8" height="37.168" rx="12.5" ry="12.5" style="stroke: #383838; stroke-width: 1.5;" width="157" x="1022.5" y="16.5"/><text fill="#000000" font-family="sans-serif" font-size="12" lengthAdjust="spacingAndGlyphs" textLength="137" x="1032.5" y="40.5625">eliminar puntos aislados</text><ellipse cx="1210" cy="35" fill="none" rx="10" ry="10" style="stroke: #000000; stroke-width: 1.0;"/><ellipse cx="1210.5" cy="35.5" fill="#000000" rx="6" ry="6" style="stroke: none; stroke-width: 1.0;"/><!--MD5=[997d31c7f64e5c1656ba5d8bf3b1f8a2]
link start to estimar resolución--><path d="M26.06,35 C30.92,35 35.78,35 40.64,35 " fill="none" id="start-&gt;estimar resolución" style="stroke: #383838; stroke-width: 1.0;"/><polygon fill="#383838" points="45.91,35,36.91,31,40.91,35,36.91,39,45.91,35" style="stroke: #383838; stroke-width: 1.0;"/><!--MD5=[548159a9ebf66d086114ab54b94c0da8]
link estimar resolución to filtrado mls--><path d="M170.46,35 C175.32,35 180.19,35 185.05,35 " fill="none" id="estimar resolución-&gt;filtrado mls" style="stroke: #383838; stroke-width: 1.0;"/><polygon fill="#383838" points="190.33,35,181.33,31,185.33,35,181.33,39,190.33,35" style="stroke: #383838; stroke-width: 1.0;"/><!--MD5=[cf704eba40210984f264e4fd321afe9d]
link filtrado mls to eliminar puntos con normales\ncasi ortogonales--><path d="M271.61,35 C276.7,35 281.79,35 286.89,35 " fill="none" id="filtrado mls-&gt;eliminar puntos con normales\ncasi ortogonales" style="stroke: #383838; stroke-width: 1.0;"/><polygon fill="#383838" points="291.98,35,282.98,31,286.98,35,282.98,39,291.98,35" style="stroke: #383838; stroke-width: 1.0;"/><!--MD5=[6948954116d30597150b0a6eda370c01]
link eliminar puntos con normales\ncasi ortogonales to triangulación Delaunay,\nproyectado en z=0--><path d="M478.27,35 C483.07,35 487.87,35 492.67,35 " fill="none" id="eliminar puntos con normales\ncasi ortogonales-&gt;triangulación Delaunay,\nproyectado en z=0" style="stroke: #383838; stroke-width: 1.0;"/><polygon fill="#383838" points="497.88,35,488.88,31,492.88,35,488.88,39,497.88,35" style="stroke: #383838; stroke-width: 1.0;"/><!--MD5=[66eb4e584bee88cde86d66a90837640b]
link triangulación Delaunay,\nproyectado en z=0 to eliminar aristas grandes--><path d="M648.01,35 C653.08,35 658.16,35 663.23,35 " fill="none" id="triangulación Delaunay,\nproyectado en z=0-&gt;eliminar aristas grandes" style="stroke: #383838; stroke-width: 1.0;"/><polygon fill="#383838" points="668.3,35,659.3,31,663.3,35,659.3,39,668.3,35" style="stroke: #383838; stroke-width: 1.0;"/><!--MD5=[d250223e9da8d0670f996c45d4cccb98]
link eliminar aristas grandes to eliminar puntos de borde--><path d="M823.78,35 C828.82,35 833.86,35 838.9,35 " fill="none" id="eliminar aristas grandes-&gt;eliminar puntos de borde" style="stroke: #383838; stroke-width: 1.0;"/><polygon fill="#383838" points="843.94,35,834.94,31,838.94,35,834.94,39,843.94,35" style="stroke: #383838; stroke-width: 1.0;"/><!--MD5=[a6639e01a113ac8c41391b67f5b2cc08]
link eliminar puntos de borde to eliminar puntos aislados--><path d="M1002.27,35 C1007.28,35 1012.29,35 1017.31,35 " fill="none" id="eliminar puntos de borde-&gt;eliminar puntos aislados" style="stroke: #383838; stroke-width: 1.0;"/><polygon fill="#383838" points="1022.32,35,1013.32,31,1017.32,35,1013.32,39,1022.32,35" style="stroke: #383838; stroke-width: 1.0;"/><!--MD5=[4437e8e6d1318acdedafe77df44f49ec]
link eliminar puntos aislados to end--><path d="M1179.77,35 C1184.63,35 1189.48,35 1194.34,35 " fill="none" id="eliminar puntos aislados-&gt;end" style="stroke: #383838; stroke-width: 1.0;"/><polygon fill="#383838" points="1199.61,35,1190.61,31,1194.61,35,1190.61,39,1199.61,35" style="stroke: #383838; stroke-width: 1.0;"/><!--MD5=[e912b4981a23e5510d0da9038d0ac0a0]
@startuml
	skinparam monochrome true
	skinparam shadowing false
(*) -> "estimar resolución"
	-> "filtrado mls"
	-> "eliminar puntos con normales\ncasi ortogonales"
	-> "triangulación Delaunay,\nproyectado en z=0"
	-> "eliminar aristas grandes"
	-> "eliminar puntos de borde"
	-> "eliminar puntos aislados"
-> (*)
@enduml

PlantUML version 1.2019.13(Tue Dec 10 17:18:29 GMT 2019)
(GPL source distribution)
Java Runtime: OpenJDK Runtime Environment
JVM: OpenJDK 64-Bit Server VM
Java Version: 13.0.2+8
Operating System: Linux
Default Encoding: UTF-8
Language: en
Country: US
--></g></svg>