<?xml version="1.0" encoding="UTF-8" standalone="no"?>
<!-- Created with Inkscape (http://www.inkscape.org/) -->

<svg
   xmlns:dc="http://purl.org/dc/elements/1.1/"
   xmlns:cc="http://creativecommons.org/ns#"
   xmlns:rdf="http://www.w3.org/1999/02/22-rdf-syntax-ns#"
   xmlns:svg="http://www.w3.org/2000/svg"
   xmlns="http://www.w3.org/2000/svg"
   xmlns:sodipodi="http://sodipodi.sourceforge.net/DTD/sodipodi-0.dtd"
   xmlns:inkscape="http://www.inkscape.org/namespaces/inkscape"
   width="210mm"
   height="297mm"
   viewBox="0 0 210 297"
   version="1.1"
   id="svg2429"
   inkscape:version="0.92.4 5da689c313, 2019-01-14"
   sodipodi:docname="marco_ref_fpfh.svg">
  <defs
     id="defs2423">
    <clipPath
       clipPathUnits="userSpaceOnUse"
       id="clipPath668">
      <path
         d="M 0,0 H 288 V 115 H 0 Z"
         id="path666"
         inkscape:connector-curvature="0" />
    </clipPath>
    <clipPath
       clipPathUnits="userSpaceOnUse"
       id="clipPath676">
      <path
         d="M 0,-0.3 H 288.1 V 115 H 0 Z"
         id="path674"
         inkscape:connector-curvature="0"
         style="clip-rule:evenodd" />
    </clipPath>
  </defs>
  <sodipodi:namedview
     id="base"
     pagecolor="#ffffff"
     bordercolor="#666666"
     borderopacity="1.0"
     inkscape:pageopacity="0.0"
     inkscape:pageshadow="2"
     inkscape:zoom="1.8730058"
     inkscape:cx="319.5051"
     inkscape:cy="952.28103"
     inkscape:document-units="mm"
     inkscape:current-layer="layer1"
     showgrid="false"
     inkscape:window-width="1366"
     inkscape:window-height="768"
     inkscape:window-x="0"
     inkscape:window-y="0"
     inkscape:window-maximized="0" />
  <metadata
     id="metadata2426">
    <rdf:RDF>
      <cc:Work
         rdf:about="">
        <dc:format>image/svg+xml</dc:format>
        <dc:type
           rdf:resource="http://purl.org/dc/dcmitype/StillImage" />
        <dc:title></dc:title>
      </cc:Work>
    </rdf:RDF>
  </metadata>
  <g
     inkscape:label="Layer 1"
     inkscape:groupmode="layer"
     id="layer1">
    <path
       d="m 56.969846,28.817361 -2.029004,2.450118"
       style="fill:none;stroke:#666699;stroke-width:0.27085286;stroke-linecap:butt;stroke-linejoin:round;stroke-miterlimit:10;stroke-dasharray:none;stroke-opacity:1"
       id="path680"
       inkscape:connector-curvature="0" />
    <path
       d="M 55.744787,33.717597 54.940842,31.267479"
       style="fill:none;stroke:#666699;stroke-width:0.27085286;stroke-linecap:butt;stroke-linejoin:round;stroke-miterlimit:10;stroke-dasharray:none;stroke-opacity:1"
       id="path684"
       inkscape:connector-curvature="0" />
    <path
       d="M 60.721589,30.501817 59.917644,28.013416"
       style="fill:none;stroke:#666699;stroke-width:0.27085286;stroke-linecap:butt;stroke-linejoin:round;stroke-miterlimit:10;stroke-dasharray:none;stroke-opacity:1"
       id="path688"
       inkscape:connector-curvature="0" />
    <path
       d="m 60.721589,30.501817 -1.990721,2.450118"
       style="fill:none;stroke:#666699;stroke-width:0.27085286;stroke-linecap:butt;stroke-linejoin:round;stroke-miterlimit:10;stroke-dasharray:none;stroke-opacity:1"
       id="path692"
       inkscape:connector-curvature="0" />
    <path
       d="m 56.969846,28.817361 2.947798,-0.803945"
       style="fill:none;stroke:#666699;stroke-width:0.27085286;stroke-linecap:butt;stroke-linejoin:round;stroke-miterlimit:10;stroke-dasharray:none;stroke-opacity:1"
       id="path696"
       inkscape:connector-curvature="0" />
    <path
       d="m 55.744787,33.717597 2.986081,-0.765662"
       style="fill:none;stroke:#666699;stroke-width:0.27085286;stroke-linecap:butt;stroke-linejoin:round;stroke-miterlimit:10;stroke-dasharray:none;stroke-opacity:1"
       id="path700"
       inkscape:connector-curvature="0" />
    <path
       inkscape:connector-curvature="0"
       id="path702"
       style="fill:#333366;fill-opacity:1;fill-rule:evenodd;stroke:none;stroke-width:0.38283092"
       d="m 59.037133,29.391607 c 0.07657,0 0.153132,0.07657 0.153132,0.153133 0,0.07657 -0.07657,0.153132 -0.153132,0.153132 -0.114849,0 -0.191415,-0.07657 -0.191415,-0.153132 0,-0.07657 0.07657,-0.153133 0.191415,-0.153133 z" />
    <path
       inkscape:connector-curvature="0"
       id="path704"
       style="fill:#333366;fill-opacity:1;fill-rule:evenodd;stroke:none;stroke-width:0.38283092"
       d="m 58.271471,31.994857 c 0.07657,0 0.153133,0.07657 0.153133,0.191416 0,0.07657 -0.07657,0.153132 -0.153133,0.153132 -0.07657,0 -0.153132,-0.07657 -0.153132,-0.153132 0,-0.114849 0.07657,-0.191416 0.153132,-0.191416 z" />
    <path
       inkscape:connector-curvature="0"
       id="path706"
       style="fill:#333366;fill-opacity:1;fill-rule:evenodd;stroke:none;stroke-width:0.38283092"
       d="m 56.3956,30.999497 c 0.07657,0 0.153132,0.07657 0.153132,0.153132 0,0.11485 -0.07657,0.191416 -0.153132,0.191416 -0.11485,0 -0.191416,-0.07657 -0.191416,-0.191416 0,-0.07657 0.07657,-0.153132 0.191416,-0.153132 z" />
    <path
       inkscape:connector-curvature="0"
       id="path708"
       style="fill:#000000;fill-opacity:1;fill-rule:evenodd;stroke:none;stroke-width:0.38283092"
       d="m 78.408378,27.247754 0.114849,-0.535963 v -0.574247 l -0.07657,-0.574246 -0.229699,-0.535963 -0.306265,-0.49768 -0.344547,-0.382831 -0.421114,-0.344548 6.048728,0.49768 -4.976802,3.445478 z" />
    <path
       inkscape:connector-curvature="0"
       id="path710"
       style="fill:#000000;fill-opacity:1;fill-rule:evenodd;stroke:none;stroke-width:0.38283092"
       d="M 57.735508,30.961214 78.714642,25.21875 78.867775,25.754713 57.88864,31.497177 Z" />
    <path
       inkscape:connector-curvature="0"
       id="path712"
       style="fill:#000000;fill-opacity:1;fill-rule:evenodd;stroke:none;stroke-width:0.38283092"
       d="m 131.50703,21.926404 -0.26799,-0.49768 -0.34454,-0.459397 -0.4594,-0.382831 -0.49768,-0.267982 -0.53596,-0.191415 -0.53597,-0.07657 h -0.53596 l 4.9768,-3.445479 -1.64617,5.81903 z" />
    <path
       inkscape:connector-curvature="0"
       id="path714"
       style="fill:#000000;fill-opacity:1;fill-rule:evenodd;stroke:none;stroke-width:0.38283092"
       d="m 121.8214,32.186273 8.6137,-12.020891 0.4594,0.306265 -8.6137,12.020891 z" />
    <path
       inkscape:connector-curvature="0"
       id="path716"
       style="fill:#000000;fill-opacity:1;fill-rule:evenodd;stroke:none;stroke-width:0.38283092"
       d="m 118.10794,33.449615 0.15314,-0.344548 0.15313,-0.421114 0.0383,-0.421114 -0.0383,-0.421114 -0.11485,-0.382831 -0.19142,-0.382831 -0.19141,-0.306264 4.13457,1.569606 -4.21114,1.416475 z" />
    <path
       inkscape:connector-curvature="0"
       id="path718"
       style="fill:#000000;fill-opacity:1;fill-rule:evenodd;stroke:none;stroke-width:0.38283092"
       d="m 57.812074,30.961214 h 1.11021 l -0.03828,0.535963 h -1.071927 z" />
    <path
       inkscape:connector-curvature="0"
       id="path720"
       style="fill:#000000;fill-opacity:1;fill-rule:evenodd;stroke:none;stroke-width:0.38283092"
       d="m 59.573096,30.961214 1.11021,0.03828 -0.03828,0.535963 h -1.071927 z" />
    <path
       inkscape:connector-curvature="0"
       id="path722"
       style="fill:#000000;fill-opacity:1;fill-rule:evenodd;stroke:none;stroke-width:0.38283092"
       d="m 61.334119,30.999497 1.071926,0.03828 v 0.535963 l -1.071926,-0.03828 z" />
    <path
       inkscape:connector-curvature="0"
       id="path724"
       style="fill:#000000;fill-opacity:1;fill-rule:evenodd;stroke:none;stroke-width:0.38283092"
       d="m 63.056858,31.03778 h 1.110209 v 0.574247 l -1.110209,-0.03828 z" />
    <path
       inkscape:connector-curvature="0"
       id="path726"
       style="fill:#000000;fill-opacity:1;fill-rule:evenodd;stroke:none;stroke-width:0.38283092"
       d="m 64.81788,31.076063 h 1.11021 v 0.574247 l -1.11021,-0.03828 z" />
    <path
       inkscape:connector-curvature="0"
       id="path728"
       style="fill:#000000;fill-opacity:1;fill-rule:evenodd;stroke:none;stroke-width:0.38283092"
       d="m 66.578902,31.114346 h 1.11021 l -0.03828,0.535964 h -1.071927 z" />
    <path
       inkscape:connector-curvature="0"
       id="path730"
       style="fill:#000000;fill-opacity:1;fill-rule:evenodd;stroke:none;stroke-width:0.38283092"
       d="m 68.339924,31.114346 1.11021,0.03828 -0.03828,0.535964 h -1.071927 z" />
    <path
       inkscape:connector-curvature="0"
       id="path732"
       style="fill:#000000;fill-opacity:1;fill-rule:evenodd;stroke:none;stroke-width:0.38283092"
       d="m 70.100947,31.152629 1.071926,0.03828 v 0.535963 l -1.071926,-0.03828 z" />
    <path
       inkscape:connector-curvature="0"
       id="path734"
       style="fill:#000000;fill-opacity:1;fill-rule:evenodd;stroke:none;stroke-width:0.38283092"
       d="m 71.861969,31.190913 h 1.071927 v 0.574246 l -1.071927,-0.03828 z" />
    <path
       inkscape:connector-curvature="0"
       id="path736"
       style="fill:#000000;fill-opacity:1;fill-rule:evenodd;stroke:none;stroke-width:0.38283092"
       d="m 73.584708,31.229196 h 1.11021 v 0.574246 l -1.11021,-0.03828 z" />
    <path
       inkscape:connector-curvature="0"
       id="path738"
       style="fill:#000000;fill-opacity:1;fill-rule:evenodd;stroke:none;stroke-width:0.38283092"
       d="m 75.34573,31.267479 h 1.11021 l -0.03828,0.574246 -1.071927,-0.03828 z" />
    <path
       inkscape:connector-curvature="0"
       id="path740"
       style="fill:#000000;fill-opacity:1;fill-rule:evenodd;stroke:none;stroke-width:0.38283092"
       d="m 77.106753,31.267479 1.110209,0.03828 -0.03828,0.535963 h -1.071926 z" />
    <path
       inkscape:connector-curvature="0"
       id="path742"
       style="fill:#000000;fill-opacity:1;fill-rule:evenodd;stroke:none;stroke-width:0.38283092"
       d="m 78.867775,31.305762 1.110209,0.03828 -0.03828,0.535963 h -1.071926 z" />
    <path
       inkscape:connector-curvature="0"
       id="path744"
       style="fill:#000000;fill-opacity:1;fill-rule:evenodd;stroke:none;stroke-width:0.38283092"
       d="m 80.628797,31.344045 h 1.071927 v 0.574246 l -1.071927,-0.03828 z" />
    <path
       inkscape:connector-curvature="0"
       id="path746"
       style="fill:#000000;fill-opacity:1;fill-rule:evenodd;stroke:none;stroke-width:0.38283092"
       d="m 82.351536,31.382328 h 1.11021 v 0.574246 l -1.11021,-0.03828 z" />
    <path
       inkscape:connector-curvature="0"
       id="path748"
       style="fill:#000000;fill-opacity:1;fill-rule:evenodd;stroke:none;stroke-width:0.38283092"
       d="m 84.112558,31.420611 h 1.11021 v 0.574246 l -1.11021,-0.03828 z" />
    <path
       inkscape:connector-curvature="0"
       id="path750"
       style="fill:#000000;fill-opacity:1;fill-rule:evenodd;stroke:none;stroke-width:0.38283092"
       d="m 85.873581,31.420611 1.110209,0.03828 -0.03828,0.535963 h -1.071926 z" />
    <path
       inkscape:connector-curvature="0"
       id="path752"
       style="fill:#000000;fill-opacity:1;fill-rule:evenodd;stroke:none;stroke-width:0.38283092"
       d="m 87.634603,31.458894 1.11021,0.03828 -0.03828,0.535964 h -1.071926 z" />
    <path
       inkscape:connector-curvature="0"
       id="path754"
       style="fill:#000000;fill-opacity:1;fill-rule:evenodd;stroke:none;stroke-width:0.38283092"
       d="m 89.395625,31.497177 h 1.11021 l -0.03828,0.574247 h -1.071927 z" />
    <path
       inkscape:connector-curvature="0"
       id="path756"
       style="fill:#000000;fill-opacity:1;fill-rule:evenodd;stroke:none;stroke-width:0.38283092"
       d="m 91.156647,31.53546 h 1.071927 v 0.574247 l -1.071927,-0.03828 z" />
    <path
       inkscape:connector-curvature="0"
       id="path758"
       style="fill:#000000;fill-opacity:1;fill-rule:evenodd;stroke:none;stroke-width:0.38283092"
       d="m 92.879386,31.53546 1.11021,0.03828 v 0.574247 l -1.11021,-0.03828 z" />
    <path
       inkscape:connector-curvature="0"
       id="path760"
       style="fill:#000000;fill-opacity:1;fill-rule:evenodd;stroke:none;stroke-width:0.38283092"
       d="m 94.640409,31.573743 1.110209,0.03828 v 0.535963 h -1.110209 z" />
    <path
       inkscape:connector-curvature="0"
       id="path762"
       style="fill:#000000;fill-opacity:1;fill-rule:evenodd;stroke:none;stroke-width:0.38283092"
       d="m 96.401431,31.612027 1.11021,0.03828 -0.03828,0.535963 h -1.071926 z" />
    <path
       inkscape:connector-curvature="0"
       id="path764"
       style="fill:#000000;fill-opacity:1;fill-rule:evenodd;stroke:none;stroke-width:0.38283092"
       d="m 98.162453,31.65031 1.11021,0.03828 -0.03828,0.535963 h -1.071927 z" />
    <path
       inkscape:connector-curvature="0"
       id="path766"
       style="fill:#000000;fill-opacity:1;fill-rule:evenodd;stroke:none;stroke-width:0.38283092"
       d="m 99.923475,31.688593 h 1.071925 v 0.574246 l -1.071925,-0.03828 z" />
    <path
       inkscape:connector-curvature="0"
       id="path768"
       style="fill:#000000;fill-opacity:1;fill-rule:evenodd;stroke:none;stroke-width:0.38283092"
       d="m 101.6845,31.688593 1.07192,0.03828 v 0.535963 h -1.11021 z" />
    <path
       inkscape:connector-curvature="0"
       id="path770"
       style="fill:#000000;fill-opacity:1;fill-rule:evenodd;stroke:none;stroke-width:0.38283092"
       d="m 103.40724,31.726876 1.11021,0.03828 v 0.535963 h -1.11021 z" />
    <path
       inkscape:connector-curvature="0"
       id="path772"
       style="fill:#000000;fill-opacity:1;fill-rule:evenodd;stroke:none;stroke-width:0.38283092"
       d="m 105.16826,31.765159 1.11021,0.03828 -0.0383,0.535963 h -1.07193 z" />
    <path
       inkscape:connector-curvature="0"
       id="path774"
       style="fill:#000000;fill-opacity:1;fill-rule:evenodd;stroke:none;stroke-width:0.38283092"
       d="m 106.92928,31.803442 1.11021,0.03828 -0.0383,0.535963 -1.07193,-0.03828 z" />
    <path
       inkscape:connector-curvature="0"
       id="path776"
       style="fill:#000000;fill-opacity:1;fill-rule:evenodd;stroke:none;stroke-width:0.38283092"
       d="m 108.6903,31.841725 h 1.11021 l -0.0383,0.574246 -1.07193,-0.03828 z" />
    <path
       inkscape:connector-curvature="0"
       id="path778"
       style="fill:#000000;fill-opacity:1;fill-rule:evenodd;stroke:none;stroke-width:0.38283092"
       d="m 110.45133,31.880008 h 1.07192 v 0.535963 h -1.07192 z" />
    <path
       inkscape:connector-curvature="0"
       id="path780"
       style="fill:#000000;fill-opacity:1;fill-rule:evenodd;stroke:none;stroke-width:0.38283092"
       d="m 112.17406,31.918291 h 1.11021 v 0.535964 h -1.11021 z" />
    <path
       inkscape:connector-curvature="0"
       id="path782"
       style="fill:#000000;fill-opacity:1;fill-rule:evenodd;stroke:none;stroke-width:0.38283092"
       d="m 113.93509,31.918291 1.11021,0.03828 v 0.535964 h -1.11021 z" />
    <path
       inkscape:connector-curvature="0"
       id="path784"
       style="fill:#000000;fill-opacity:1;fill-rule:evenodd;stroke:none;stroke-width:0.38283092"
       d="m 115.69611,31.956574 1.11021,0.03828 -0.0383,0.535964 -1.07193,-0.03828 z" />
    <path
       inkscape:connector-curvature="0"
       id="path786"
       style="fill:#000000;fill-opacity:1;fill-rule:evenodd;stroke:none;stroke-width:0.38283092"
       d="m 117.45713,31.994857 h 1.11021 l -0.0383,0.574247 -1.07193,-0.03828 z" />
    <path
       inkscape:connector-curvature="0"
       id="path788"
       style="fill:#999999;fill-opacity:1;fill-rule:evenodd;stroke:none;stroke-width:0.38283092"
       d="m 143.87246,28.511096 -0.0383,0.03828 h -0.0383 l -0.0766,0.03828 -0.0766,-0.03828 -0.0766,-0.07657 -0.0383,-0.07657 -0.95708,-3.483762 v -0.114849 l 0.0383,-0.07657 0.0383,-0.07657 0.0766,-0.03828 h 0.0383 0.0766 l 4.40256,0.689095 0.11485,0.03828 0.0766,0.11485 v 0.153132 l -0.11485,0.114849 z" />
    <path
       inkscape:connector-curvature="0"
       id="path790"
       style="fill:#999999;fill-opacity:1;fill-rule:evenodd;stroke:none;stroke-width:0.38283092"
       d="m 121.97454,32.109707 21.89792,-5.972163 0.11485,0.535964 -21.85964,5.972162 z" />
    <path
       inkscape:connector-curvature="0"
       id="path936"
       style="fill:#999999;fill-opacity:1;fill-rule:evenodd;stroke:none;stroke-width:0.38283092"
       d="m 110.60446,43.020388 0.0383,-0.07657 v 0 l 0.0766,-0.07657 0.0766,-0.03828 h 0.11485 l 0.0766,0.03828 2.83295,2.296985 0.0383,0.07657 0.0383,0.07657 -0.0383,0.07657 v 0.07657 l -0.0383,0.03828 -0.0383,0.03828 -3.98144,2.029004 -0.11485,0.03828 -0.15313,-0.07657 -0.0383,-0.114849 v -0.11485 z" />
    <path
       inkscape:connector-curvature="0"
       id="path938"
       style="fill:#999999;fill-opacity:1;fill-rule:evenodd;stroke:none;stroke-width:0.38283092"
       d="m 122.0511,32.492538 -9.99188,12.403721 -0.4594,-0.344547 10.03017,-12.403722 z" />
    <path
       inkscape:connector-curvature="0"
       id="path946"
       style="fill:#999999;fill-opacity:1;fill-rule:evenodd;stroke:none;stroke-width:0.38283092"
       d="m 120.0221,20.127099 v 0.03828 l 0.0383,0.03828 v 0.07657 0.07657 l -0.0766,0.07657 -0.0766,0.03828 -3.44548,1.148493 h -0.0766 l -0.11484,-0.03828 -0.0383,-0.03828 -0.0766,-0.07657 v -0.03828 -0.07657 l 0.45939,-4.440839 0.0383,-0.114849 0.11485,-0.07657 h 0.11485 l 0.15313,0.114849 z" />
    <path
       inkscape:connector-curvature="0"
       id="path948"
       style="fill:#999999;fill-opacity:1;fill-rule:evenodd;stroke:none;stroke-width:0.38283092"
       d="m 121.59171,32.415971 -3.94316,-12.13574 0.49768,-0.191415 3.98144,12.13574 z" />
    <path
       d="m 122.0511,32.339405 10.98725,10.680983"
       style="fill:none;stroke:#000000;stroke-width:0.27085286;stroke-linecap:butt;stroke-linejoin:round;stroke-miterlimit:10;stroke-dasharray:none;stroke-opacity:1"
       id="path958"
       inkscape:connector-curvature="0" />
    <path
       inkscape:connector-curvature="0"
       id="path960"
       style="fill:#000000;fill-opacity:1;fill-rule:evenodd;stroke:none;stroke-width:0.38283092"
       d="m 133.42118,16.605054 v 0.535964 h -0.26798 l 0.0383,-0.535964 z" />
    <path
       inkscape:connector-curvature="0"
       id="path962"
       style="fill:#000000;fill-opacity:1;fill-rule:evenodd;stroke:none;stroke-width:0.38283092"
       d="m 133.42118,17.676981 v 0.535963 h -0.26798 v -0.535963 z" />
    <path
       inkscape:connector-curvature="0"
       id="path964"
       style="fill:#000000;fill-opacity:1;fill-rule:evenodd;stroke:none;stroke-width:0.38283092"
       d="m 133.42118,18.748908 v 0.535963 h -0.26798 v -0.535963 z" />
    <path
       inkscape:connector-curvature="0"
       id="path966"
       style="fill:#000000;fill-opacity:1;fill-rule:evenodd;stroke:none;stroke-width:0.38283092"
       d="m 133.42118,19.820834 v 0.535963 h -0.26798 v -0.535963 z" />
    <path
       inkscape:connector-curvature="0"
       id="path968"
       style="fill:#000000;fill-opacity:1;fill-rule:evenodd;stroke:none;stroke-width:0.38283092"
       d="m 133.42118,20.892761 v 0.535963 h -0.26798 v -0.535963 z" />
    <path
       inkscape:connector-curvature="0"
       id="path970"
       style="fill:#000000;fill-opacity:1;fill-rule:evenodd;stroke:none;stroke-width:0.38283092"
       d="m 133.42118,21.964687 v 0.535964 h -0.26798 v -0.535964 z" />
    <path
       inkscape:connector-curvature="0"
       id="path972"
       style="fill:#000000;fill-opacity:1;fill-rule:evenodd;stroke:none;stroke-width:0.38283092"
       d="m 133.42118,23.036614 v 0.535963 h -0.26798 v -0.535963 z" />
    <path
       inkscape:connector-curvature="0"
       id="path974"
       style="fill:#000000;fill-opacity:1;fill-rule:evenodd;stroke:none;stroke-width:0.38283092"
       d="m 133.42118,24.108541 v 0.535963 h -0.26798 v -0.574247 z" />
    <path
       inkscape:connector-curvature="0"
       id="path976"
       style="fill:#000000;fill-opacity:1;fill-rule:evenodd;stroke:none;stroke-width:0.38283092"
       d="m 133.42118,25.180467 -0.0383,0.49768 h -0.26798 l 0.0383,-0.49768 z" />
    <path
       inkscape:connector-curvature="0"
       id="path978"
       style="fill:#000000;fill-opacity:1;fill-rule:evenodd;stroke:none;stroke-width:0.38283092"
       d="m 133.3829,26.252394 v 0.49768 h -0.26798 v -0.535963 z" />
    <path
       inkscape:connector-curvature="0"
       id="path980"
       style="fill:#000000;fill-opacity:1;fill-rule:evenodd;stroke:none;stroke-width:0.38283092"
       d="M 133.3829,27.286037 V 27.822 h -0.26798 v -0.535963 z" />
    <path
       inkscape:connector-curvature="0"
       id="path982"
       style="fill:#000000;fill-opacity:1;fill-rule:evenodd;stroke:none;stroke-width:0.38283092"
       d="m 133.3829,28.357964 v 0.535963 h -0.26798 v -0.535963 z" />
    <path
       inkscape:connector-curvature="0"
       id="path984"
       style="fill:#000000;fill-opacity:1;fill-rule:evenodd;stroke:none;stroke-width:0.38283092"
       d="m 133.3829,29.42989 v 0.535964 h -0.26798 V 29.42989 Z" />
    <path
       inkscape:connector-curvature="0"
       id="path986"
       style="fill:#000000;fill-opacity:1;fill-rule:evenodd;stroke:none;stroke-width:0.38283092"
       d="m 133.3829,30.501817 v 0.535963 h -0.26798 v -0.535963 z" />
    <path
       inkscape:connector-curvature="0"
       id="path988"
       style="fill:#000000;fill-opacity:1;fill-rule:evenodd;stroke:none;stroke-width:0.38283092"
       d="m 133.3829,31.573743 -0.0383,0.535964 h -0.26798 l 0.0383,-0.535964 z" />
    <path
       inkscape:connector-curvature="0"
       id="path990"
       style="fill:#000000;fill-opacity:1;fill-rule:evenodd;stroke:none;stroke-width:0.38283092"
       d="m 133.34461,32.64567 v 0.535963 h -0.26798 V 32.64567 Z" />
    <path
       inkscape:connector-curvature="0"
       id="path992"
       style="fill:#000000;fill-opacity:1;fill-rule:evenodd;stroke:none;stroke-width:0.38283092"
       d="m 133.34461,33.717597 v 0.535963 h -0.26798 v -0.535963 z" />
    <path
       inkscape:connector-curvature="0"
       id="path994"
       style="fill:#000000;fill-opacity:1;fill-rule:evenodd;stroke:none;stroke-width:0.38283092"
       d="m 133.34461,34.789523 v 0.535963 h -0.26798 v -0.535963 z" />
    <path
       inkscape:connector-curvature="0"
       id="path996"
       style="fill:#000000;fill-opacity:1;fill-rule:evenodd;stroke:none;stroke-width:0.38283092"
       d="m 133.34461,35.86145 v 0.535963 h -0.26798 V 35.86145 Z" />
    <path
       inkscape:connector-curvature="0"
       id="path998"
       style="fill:#000000;fill-opacity:1;fill-rule:evenodd;stroke:none;stroke-width:0.38283092"
       d="m 133.34461,36.933376 v 0.535964 h -0.26798 v -0.535964 z" />
    <path
       inkscape:connector-curvature="0"
       id="path1000"
       style="fill:#000000;fill-opacity:1;fill-rule:evenodd;stroke:none;stroke-width:0.38283092"
       d="m 133.34461,38.005303 v 0.49768 h -0.26798 v -0.49768 z" />
    <path
       inkscape:connector-curvature="0"
       id="path1002"
       style="fill:#000000;fill-opacity:1;fill-rule:evenodd;stroke:none;stroke-width:0.38283092"
       d="m 133.34461,39.077229 v 0.535964 h -0.26798 v -0.574247 z" />
    <path
       inkscape:connector-curvature="0"
       id="path1004"
       style="fill:#000000;fill-opacity:1;fill-rule:evenodd;stroke:none;stroke-width:0.38283092"
       d="m 133.34461,40.110873 -0.0383,0.535963 h -0.26798 l 0.0383,-0.535963 z" />
    <path
       inkscape:connector-curvature="0"
       id="path1006"
       style="fill:#000000;fill-opacity:1;fill-rule:evenodd;stroke:none;stroke-width:0.38283092"
       d="m 133.30633,41.1828 v 0.535963 h -0.26798 V 41.1828 Z" />
    <path
       inkscape:connector-curvature="0"
       id="path1008"
       style="fill:#000000;fill-opacity:1;fill-rule:evenodd;stroke:none;stroke-width:0.38283092"
       d="m 133.30633,42.254726 v 0.229699 h -0.26798 v -0.229699 z" />
    <path
       inkscape:connector-curvature="0"
       id="path1010"
       style="fill:#999999;fill-opacity:1;fill-rule:evenodd;stroke:none;stroke-width:0.38283092"
       d="m 124.50122,29.200192 -0.0766,-0.03828 -0.0766,-0.07657 -0.0383,-0.03828 -0.0766,-0.03828 -0.0766,-0.03828 -0.0766,-0.03828 -0.0766,-0.07657 h -0.0766 l -0.11485,-0.03828 -0.0766,-0.03828 -0.11485,-0.03828 h -0.0766 l -0.11485,-0.03828 -0.0766,-0.03828 h -0.11485 -0.11485 l -0.0766,-0.03828 h -0.11485 -0.11485 -0.11484 -0.0766 -0.11485 -0.11485 l -0.11485,0.03828 h -0.0766 -0.11484 l -0.11485,0.03828 -0.0766,0.03828 h -0.11485 l -0.0766,0.03828 -0.11484,0.03828 -0.0766,0.03828 -0.0766,0.03828 -0.0766,0.03828 -0.0766,0.03828 -0.0766,0.03828 -0.0766,0.03828 -0.0766,0.03828 -0.0766,0.07657 -0.0383,0.03828 v 0 l 0.0383,-0.03828 0.0766,-0.07657 0.0766,-0.03828 0.0766,-0.03828 0.0766,-0.03828 0.0766,-0.03828 0.0766,-0.03828 0.0766,-0.03828 0.0766,-0.03828 0.11484,-0.03828 0.0766,-0.03828 h 0.11485 l 0.0766,-0.03828 0.11485,-0.03828 h 0.11484 0.0766 l 0.11485,-0.03828 h 0.11485 0.11485 0.0766 0.11484 0.11485 0.11485 l 0.0766,0.03828 h 0.11485 0.11485 l 0.0766,0.03828 0.11485,0.03828 h 0.0766 l 0.11485,0.03828 0.0766,0.03828 0.11485,0.03828 h 0.0766 l 0.0766,0.07657 0.0766,0.03828 0.0766,0.03828 0.0766,0.03828 0.0383,0.03828 0.0766,0.07657 z" />
    <path
       d="m 124.50122,29.200192 -0.0766,-0.03828 -0.0766,-0.07657 -0.0383,-0.03828 -0.0766,-0.03828 -0.0766,-0.03828 -0.0766,-0.03828 -0.0766,-0.07657 h -0.0766 l -0.11485,-0.03828 -0.0766,-0.03828 -0.11485,-0.03828 h -0.0766 l -0.11485,-0.03828 -0.0766,-0.03828 h -0.11485 -0.11485 l -0.0766,-0.03828 h -0.11485 -0.11485 -0.11484 -0.0766 -0.11485 -0.11485 l -0.11485,0.03828 h -0.0766 -0.11484 l -0.11485,0.03828 -0.0766,0.03828 h -0.11485 l -0.0766,0.03828 -0.11484,0.03828 -0.0766,0.03828 -0.0766,0.03828 -0.0766,0.03828 -0.0766,0.03828 -0.0766,0.03828 -0.0766,0.03828 -0.0766,0.03828 -0.0766,0.07657 -0.0383,0.03828 v 0 l 0.0383,-0.03828 0.0766,-0.07657 0.0766,-0.03828 0.0766,-0.03828 0.0766,-0.03828 0.0766,-0.03828 0.0766,-0.03828 0.0766,-0.03828 0.0766,-0.03828 0.11484,-0.03828 0.0766,-0.03828 h 0.11485 l 0.0766,-0.03828 0.11485,-0.03828 h 0.11484 0.0766 l 0.11485,-0.03828 h 0.11485 0.11485 0.0766 0.11484 0.11485 0.11485 l 0.0766,0.03828 h 0.11485 0.11485 l 0.0766,0.03828 0.11485,0.03828 h 0.0766 l 0.11485,0.03828 0.0766,0.03828 0.11485,0.03828 h 0.0766 l 0.0766,0.07657 0.0766,0.03828 0.0766,0.03828 0.0766,0.03828 0.0383,0.03828 0.0766,0.07657 z"
       style="fill:none;stroke:#000000;stroke-width:0.27085286;stroke-linecap:butt;stroke-linejoin:round;stroke-miterlimit:10;stroke-dasharray:none;stroke-opacity:1"
       id="path1014"
       inkscape:connector-curvature="0" />
    <path
       inkscape:connector-curvature="0"
       id="path1034"
       style="fill:#999999;fill-opacity:1;fill-rule:evenodd;stroke:none;stroke-width:0.38283092"
       d="m 124.04182,34.291843 0.0766,-0.03828 h 0.11485 l 0.0383,-0.03828 0.0766,-0.03828 h 0.0766 l 0.11485,-0.07657 0.0766,-0.03828 0.0766,-0.03828 0.0766,-0.07657 0.0766,-0.03828 0.0766,-0.03828 0.0766,-0.07657 0.0766,-0.07657 0.0766,-0.07657 0.0766,-0.07657 0.0766,-0.07657 0.0383,-0.07657 0.0766,-0.07657 0.0766,-0.07657 0.0383,-0.11485 0.0766,-0.07657 0.0383,-0.07657 0.0766,-0.114849 0.0383,-0.07657 0.0383,-0.07657 0.0766,-0.114849 v -0.07657 l 0.0766,-0.11485 v -0.07657 l 0.0383,-0.114849 0.0383,-0.07657 0.0383,-0.07657 v -0.11485 l 0.0383,-0.07657 v -0.07657 -0.114849 -0.07657 -0.07657 -0.07657 -0.07657 0 0.07657 0.07657 0.07657 0.07657 0.114849 0.07657 l -0.0383,0.07657 v 0.11485 l -0.0383,0.07657 -0.0383,0.07657 -0.0383,0.114849 v 0.07657 l -0.0766,0.11485 v 0.07657 l -0.0766,0.114849 -0.0383,0.07657 -0.0383,0.07657 -0.0766,0.114849 -0.0383,0.07657 -0.0766,0.07657 -0.0383,0.11485 -0.0766,0.07657 -0.0766,0.07657 -0.0383,0.07657 -0.0766,0.07657 -0.0766,0.07657 -0.0766,0.07657 -0.0766,0.07657 -0.0766,0.07657 -0.0766,0.03828 -0.0766,0.03828 -0.0766,0.07657 -0.0766,0.03828 -0.0766,0.03828 -0.11485,0.07657 h -0.0766 l -0.0766,0.03828 -0.0383,0.03828 h -0.11485 z" />
    <path
       d="m 124.04182,34.291843 0.0766,-0.03828 h 0.11485 l 0.0383,-0.03828 0.0766,-0.03828 h 0.0766 l 0.11485,-0.07657 0.0766,-0.03828 0.0766,-0.03828 0.0766,-0.07657 0.0766,-0.03828 0.0766,-0.03828 0.0766,-0.07657 0.0766,-0.07657 0.0766,-0.07657 0.0766,-0.07657 0.0766,-0.07657 0.0383,-0.07657 0.0766,-0.07657 0.0766,-0.07657 0.0383,-0.11485 0.0766,-0.07657 0.0383,-0.07657 0.0766,-0.114849 0.0383,-0.07657 0.0383,-0.07657 0.0766,-0.114849 v -0.07657 l 0.0766,-0.11485 v -0.07657 l 0.0383,-0.114849 0.0383,-0.07657 0.0383,-0.07657 v -0.11485 l 0.0383,-0.07657 v -0.07657 -0.114849 -0.07657 -0.07657 -0.07657 -0.07657 0 0.07657 0.07657 0.07657 0.07657 0.114849 0.07657 l -0.0383,0.07657 v 0.11485 l -0.0383,0.07657 -0.0383,0.07657 -0.0383,0.114849 v 0.07657 l -0.0766,0.11485 v 0.07657 l -0.0766,0.114849 -0.0383,0.07657 -0.0383,0.07657 -0.0766,0.114849 -0.0383,0.07657 -0.0766,0.07657 -0.0383,0.11485 -0.0766,0.07657 -0.0766,0.07657 -0.0383,0.07657 -0.0766,0.07657 -0.0766,0.07657 -0.0766,0.07657 -0.0766,0.07657 -0.0766,0.07657 -0.0766,0.03828 -0.0766,0.03828 -0.0766,0.07657 -0.0766,0.03828 -0.0766,0.03828 -0.11485,0.07657 h -0.0766 l -0.0766,0.03828 -0.0383,0.03828 h -0.11485 z"
       style="fill:none;stroke:#000000;stroke-width:0.27085286;stroke-linecap:butt;stroke-linejoin:round;stroke-miterlimit:10;stroke-dasharray:none;stroke-opacity:1"
       id="path1038"
       inkscape:connector-curvature="0" />
    <path
       inkscape:connector-curvature="0"
       id="path1040"
       style="fill:#999999;fill-opacity:1;fill-rule:evenodd;stroke:none;stroke-width:0.38283092"
       d="m 70.63691,31.305762 0.03828,-0.07657 0.07657,-0.07657 0.03828,-0.03828 0.03828,-0.07657 0.03828,-0.07657 0.03828,-0.07657 0.03828,-0.07657 0.03828,-0.11485 0.03828,-0.07657 0.03828,-0.07657 0.03828,-0.114849 v -0.07657 l 0.03828,-0.11485 v -0.114849 l 0.03828,-0.07657 v -0.114849 l 0.03828,-0.11485 v -0.07657 -0.114849 -0.11485 -0.114849 -0.07657 -0.114849 l -0.03828,-0.11485 v -0.114849 l -0.03828,-0.07657 V 28.77903 L 71.09628,28.70246 71.058,28.58761 v -0.07657 l -0.03828,-0.114849 -0.03828,-0.07657 -0.03828,-0.07657 -0.03828,-0.114849 -0.03828,-0.03828 -0.03828,-0.07657 -0.03828,-0.07657 -0.07657,-0.07657 -0.03828,-0.07657 -0.03828,-0.03828 v 0 l 0.03828,0.03828 0.03828,0.07657 0.07657,0.07657 0.03828,0.07657 0.03828,0.07657 0.03828,0.03828 0.03828,0.114849 0.03828,0.07657 0.03828,0.07657 0.03828,0.114849 v 0.07657 l 0.03828,0.11485 0.03828,0.07657 v 0.114849 l 0.03828,0.07657 v 0.114849 l 0.03828,0.11485 v 0.114849 0.07657 0.114849 0.11485 0.114849 0.07657 l -0.03828,0.11485 v 0.114849 l -0.03828,0.07657 v 0.114849 l -0.03828,0.11485 v 0.07657 l -0.03828,0.114849 -0.03828,0.07657 -0.03828,0.07657 -0.03828,0.11485 -0.03828,0.07657 -0.03828,0.07657 -0.03828,0.07657 -0.03828,0.07657 -0.03828,0.03828 -0.07657,0.07657 z" />
    <path
       d="m 70.63691,31.305762 0.03828,-0.07657 0.07657,-0.07657 0.03828,-0.03828 0.03828,-0.07657 0.03828,-0.07657 0.03828,-0.07657 0.03828,-0.07657 0.03828,-0.11485 0.03828,-0.07657 0.03828,-0.07657 0.03828,-0.114849 v -0.07657 l 0.03828,-0.11485 v -0.114849 l 0.03828,-0.07657 v -0.114849 l 0.03828,-0.11485 v -0.07657 -0.114849 -0.11485 -0.114849 -0.07657 -0.114849 l -0.03828,-0.11485 v -0.114849 l -0.03828,-0.07657 V 28.77903 L 71.09628,28.70246 71.058,28.58761 v -0.07657 l -0.03828,-0.114849 -0.03828,-0.07657 -0.03828,-0.07657 -0.03828,-0.114849 -0.03828,-0.03828 -0.03828,-0.07657 -0.03828,-0.07657 -0.07657,-0.07657 -0.03828,-0.07657 -0.03828,-0.03828 v 0 l 0.03828,0.03828 0.03828,0.07657 0.07657,0.07657 0.03828,0.07657 0.03828,0.07657 0.03828,0.03828 0.03828,0.114849 0.03828,0.07657 0.03828,0.07657 0.03828,0.114849 v 0.07657 l 0.03828,0.11485 0.03828,0.07657 v 0.114849 l 0.03828,0.07657 v 0.114849 l 0.03828,0.11485 v 0.114849 0.07657 0.114849 0.11485 0.114849 0.07657 l -0.03828,0.11485 v 0.114849 l -0.03828,0.07657 v 0.114849 l -0.03828,0.11485 v 0.07657 l -0.03828,0.114849 -0.03828,0.07657 -0.03828,0.07657 -0.03828,0.11485 -0.03828,0.07657 -0.03828,0.07657 -0.03828,0.07657 -0.03828,0.07657 -0.03828,0.03828 -0.07657,0.07657 z"
       style="fill:none;stroke:#000000;stroke-width:0.27085286;stroke-linecap:butt;stroke-linejoin:round;stroke-miterlimit:10;stroke-dasharray:none;stroke-opacity:1"
       id="path1044"
       inkscape:connector-curvature="0" />
    <path
       d="m 131.58359,39.613193 0.0383,2.143853"
       style="fill:none;stroke:#000000;stroke-width:0.27085286;stroke-linecap:butt;stroke-linejoin:round;stroke-miterlimit:10;stroke-dasharray:none;stroke-opacity:1"
       id="path1048"
       inkscape:connector-curvature="0" />
    <path
       d="m 131.62188,39.57491 1.5696,1.531323"
       style="fill:none;stroke:#000000;stroke-width:0.27085286;stroke-linecap:butt;stroke-linejoin:round;stroke-miterlimit:10;stroke-dasharray:none;stroke-opacity:1"
       id="path1052"
       inkscape:connector-curvature="0" />
    <path
       inkscape:connector-curvature="0"
       id="path1054"
       style="fill:#000000;fill-opacity:1;fill-rule:evenodd;stroke:none;stroke-width:0.38283092"
       d="m 132.42582,41.106233 c 0.0766,0 0.15313,0.07657 0.15313,0.153133 0,0.114849 -0.0766,0.191415 -0.15313,0.191415 -0.0766,0 -0.15313,-0.07657 -0.15313,-0.191415 0,-0.07657 0.0766,-0.153133 0.15313,-0.153133 z" />
    <path
       inkscape:connector-curvature="0"
       id="path1056"
       style="fill:#666699;fill-opacity:1;fill-rule:evenodd;stroke:none;stroke-width:0.38283092"
       d="m 46.977959,41.642197 v -0.07657 h 0.03828 l 0.07657,-0.07657 0.07657,-0.03828 h 0.07657 l 0.07657,0.03828 2.871232,2.258703 0.03828,0.07657 0.03828,0.07657 -0.03828,0.114849 -0.03828,0.07657 v 0 l -0.03828,0.03828 -3.981442,2.067287 -0.114849,0.03828 -0.153132,-0.03828 -0.03828,-0.11485 v -0.153132 z" />
    <path
       inkscape:connector-curvature="0"
       id="path1058"
       style="fill:#666699;fill-opacity:1;fill-rule:evenodd;stroke:none;stroke-width:0.38283092"
       d="M 58.041773,31.382328 48.432717,43.518068 47.97332,43.17352 57.582376,31.03778 Z" />
    <path
       inkscape:connector-curvature="0"
       id="path1060"
       style="fill:#666699;fill-opacity:1;fill-rule:evenodd;stroke:none;stroke-width:0.38283092"
       d="m 55.974486,19.016889 0.03828,0.03828 v 0.03828 0.07657 0.114849 l -0.07657,0.07657 -0.07657,0.03828 -3.445478,1.11021 h -0.07657 -0.07657 l -0.07657,-0.07657 -0.03828,-0.07657 -0.03828,-0.03828 v -0.03828 l 0.459398,-4.440838 0.03828,-0.11485 0.153132,-0.114849 0.114849,0.03828 0.11485,0.07657 z" />
    <path
       inkscape:connector-curvature="0"
       id="path1062"
       style="fill:#666699;fill-opacity:1;fill-rule:evenodd;stroke:none;stroke-width:0.38283092"
       d="m 57.544093,31.305762 -3.943159,-12.13574 0.535963,-0.153133 3.943159,12.097457 z" />
    <text
       xml:space="preserve"
       style="font-style:normal;font-variant:normal;font-weight:normal;font-stretch:normal;font-size:3.52777767px;line-height:1.25;font-family:'Latin Modern Roman';-inkscape-font-specification:'Latin Modern Roman, ';font-variant-ligatures:normal;font-variant-caps:normal;font-variant-numeric:normal;text-align:start;letter-spacing:0px;word-spacing:0px;writing-mode:lr-tb;text-anchor:start;fill:#000000;fill-opacity:1;stroke:none;stroke-width:0.26458332"
       x="51.946869"
       y="14.162199"
       id="text4629"><tspan
         sodipodi:role="line"
         id="tspan4627"
         x="51.946869"
         y="14.162199"
         style="stroke-width:0.26458332">$v=(p_t - p_s) \times u$</tspan></text>
    <text
       xml:space="preserve"
       style="font-style:normal;font-variant:normal;font-weight:normal;font-stretch:normal;font-size:3.52777767px;line-height:1.25;font-family:'Latin Modern Roman';-inkscape-font-specification:'Latin Modern Roman, ';font-variant-ligatures:normal;font-variant-caps:normal;font-variant-numeric:normal;text-align:start;letter-spacing:0px;word-spacing:0px;writing-mode:lr-tb;text-anchor:start;fill:#000000;fill-opacity:1;stroke:none;stroke-width:0.26458332"
       x="81.938301"
       y="23.202677"
       id="text4633"><tspan
         sodipodi:role="line"
         id="tspan4631"
         x="81.938301"
         y="23.202677"
         style="stroke-width:0.26458332">$u = n_s$</tspan></text>
    <text
       xml:space="preserve"
       style="font-style:normal;font-variant:normal;font-weight:normal;font-stretch:normal;font-size:3.52777767px;line-height:1.25;font-family:'Latin Modern Roman';-inkscape-font-specification:'Latin Modern Roman, ';font-variant-ligatures:normal;font-variant-caps:normal;font-variant-numeric:normal;text-align:start;letter-spacing:0px;word-spacing:0px;writing-mode:lr-tb;text-anchor:start;fill:#000000;fill-opacity:1;stroke:none;stroke-width:0.26458332"
       x="46.12669"
       y="48.461437"
       id="text4637"><tspan
         sodipodi:role="line"
         id="tspan4635"
         x="46.12669"
         y="48.461437"
         style="stroke-width:0.26458332">$w = u \times v$</tspan></text>
    <text
       xml:space="preserve"
       style="font-style:normal;font-variant:normal;font-weight:normal;font-stretch:normal;font-size:3.52777767px;line-height:1.25;font-family:'Latin Modern Roman';-inkscape-font-specification:'Latin Modern Roman, ';font-variant-ligatures:normal;font-variant-caps:normal;font-variant-numeric:normal;text-align:start;letter-spacing:0px;word-spacing:0px;writing-mode:lr-tb;text-anchor:start;fill:#000000;fill-opacity:1;stroke:none;stroke-width:0.26458332"
       x="108.33941"
       y="49.78529"
       id="text4641"><tspan
         sodipodi:role="line"
         id="tspan4639"
         x="108.33941"
         y="49.78529"
         style="stroke-width:0.26458332">$w$</tspan></text>
    <text
       xml:space="preserve"
       style="font-style:normal;font-variant:normal;font-weight:normal;font-stretch:normal;font-size:3.52777767px;line-height:1.25;font-family:'Latin Modern Roman';-inkscape-font-specification:'Latin Modern Roman, ';font-variant-ligatures:normal;font-variant-caps:normal;font-variant-numeric:normal;text-align:start;letter-spacing:0px;word-spacing:0px;writing-mode:lr-tb;text-anchor:start;fill:#000000;fill-opacity:1;stroke:none;stroke-width:0.26458332"
       x="116.09121"
       y="16.027695"
       id="text4645"><tspan
         sodipodi:role="line"
         id="tspan4643"
         x="116.09121"
         y="16.027695"
         style="stroke-width:0.26458332">$v$</tspan></text>
    <text
       xml:space="preserve"
       style="font-style:normal;font-variant:normal;font-weight:normal;font-stretch:normal;font-size:3.52777767px;line-height:1.25;font-family:'Latin Modern Roman';-inkscape-font-specification:'Latin Modern Roman, ';font-variant-ligatures:normal;font-variant-caps:normal;font-variant-numeric:normal;text-align:start;letter-spacing:0px;word-spacing:0px;writing-mode:lr-tb;text-anchor:start;fill:#000000;fill-opacity:1;stroke:none;stroke-width:0.26458332"
       x="145.50864"
       y="23.489676"
       id="text4649"><tspan
         sodipodi:role="line"
         id="tspan4647"
         x="145.50864"
         y="23.489676"
         style="stroke-width:0.26458332">$u$</tspan></text>
    <text
       xml:space="preserve"
       style="font-style:normal;font-variant:normal;font-weight:normal;font-stretch:normal;font-size:3.52777767px;line-height:1.25;font-family:'Latin Modern Roman';-inkscape-font-specification:'Latin Modern Roman, ';font-variant-ligatures:normal;font-variant-caps:normal;font-variant-numeric:normal;text-align:start;letter-spacing:0px;word-spacing:0px;writing-mode:lr-tb;text-anchor:start;fill:#000000;fill-opacity:1;stroke:none;stroke-width:0.26458332"
       x="133.02417"
       y="15.310196"
       id="text4653"><tspan
         sodipodi:role="line"
         id="tspan4651"
         x="133.02417"
         y="15.310196"
         style="stroke-width:0.26458332">$n_t$</tspan></text>
    <text
       xml:space="preserve"
       style="font-style:normal;font-variant:normal;font-weight:normal;font-stretch:normal;font-size:3.52777767px;line-height:1.25;font-family:'Latin Modern Roman';-inkscape-font-specification:'Latin Modern Roman, ';font-variant-ligatures:normal;font-variant-caps:normal;font-variant-numeric:normal;text-align:start;letter-spacing:0px;word-spacing:0px;writing-mode:lr-tb;text-anchor:start;fill:#000000;fill-opacity:1;stroke:none;stroke-width:0.26458332"
       x="52.368668"
       y="28.956339"
       id="text4657"><tspan
         sodipodi:role="line"
         id="tspan4655"
         x="52.368668"
         y="28.956339"
         style="stroke-width:0.26458332">$p_s$</tspan></text>
    <text
       xml:space="preserve"
       style="font-style:normal;font-variant:normal;font-weight:normal;font-stretch:normal;font-size:3.52777767px;line-height:1.25;font-family:'Latin Modern Roman';-inkscape-font-specification:'Latin Modern Roman, ';font-variant-ligatures:normal;font-variant-caps:normal;font-variant-numeric:normal;text-align:start;letter-spacing:0px;word-spacing:0px;writing-mode:lr-tb;text-anchor:start;fill:#000000;fill-opacity:1;stroke:none;stroke-width:0.26458332"
       x="120.77336"
       y="36.636955"
       id="text4661"><tspan
         sodipodi:role="line"
         id="tspan4659"
         x="120.77336"
         y="36.636955"
         style="stroke-width:0.26458332">$p_t$</tspan></text>
    <text
       xml:space="preserve"
       style="font-style:normal;font-variant:normal;font-weight:normal;font-stretch:normal;font-size:3.52777767px;line-height:1.25;font-family:'Latin Modern Roman';-inkscape-font-specification:'Latin Modern Roman, ';font-variant-ligatures:normal;font-variant-caps:normal;font-variant-numeric:normal;text-align:start;letter-spacing:0px;word-spacing:0px;writing-mode:lr-tb;text-anchor:start;fill:#000000;fill-opacity:1;stroke:none;stroke-width:0.26458332"
       x="88.599648"
       y="35.196541"
       id="text4665"><tspan
         sodipodi:role="line"
         id="tspan4663"
         x="88.599648"
         y="35.196541"
         style="stroke-width:0.26458332">$p_t - p_s$</tspan></text>
    <text
       xml:space="preserve"
       style="font-style:normal;font-variant:normal;font-weight:normal;font-stretch:normal;font-size:3.52777767px;line-height:1.25;font-family:'Latin Modern Roman';-inkscape-font-specification:'Latin Modern Roman, ';font-variant-ligatures:normal;font-variant-caps:normal;font-variant-numeric:normal;text-align:start;letter-spacing:0px;word-spacing:0px;writing-mode:lr-tb;text-anchor:start;fill:#000000;fill-opacity:1;stroke:none;stroke-width:0.26458332"
       x="125.75755"
       y="34.896885"
       id="text4669"><tspan
         sodipodi:role="line"
         id="tspan4667"
         x="125.75755"
         y="34.896885"
         style="stroke-width:0.26458332">$\theta$</tspan></text>
    <text
       xml:space="preserve"
       style="font-style:normal;font-variant:normal;font-weight:normal;font-stretch:normal;font-size:3.52777767px;line-height:1.25;font-family:'Latin Modern Roman';-inkscape-font-specification:'Latin Modern Roman, ';font-variant-ligatures:normal;font-variant-caps:normal;font-variant-numeric:normal;text-align:start;letter-spacing:0px;word-spacing:0px;writing-mode:lr-tb;text-anchor:start;fill:#000000;fill-opacity:1;stroke:none;stroke-width:0.26458332"
       x="121.36253"
       y="27.205597"
       id="text4673"><tspan
         sodipodi:role="line"
         id="tspan4671"
         x="121.36253"
         y="27.205597"
         style="stroke-width:0.26458332">$\alpha$</tspan></text>
    <text
       xml:space="preserve"
       style="font-style:normal;font-variant:normal;font-weight:normal;font-stretch:normal;font-size:3.52777767px;line-height:1.25;font-family:'Latin Modern Roman';-inkscape-font-specification:'Latin Modern Roman, ';font-variant-ligatures:normal;font-variant-caps:normal;font-variant-numeric:normal;text-align:start;letter-spacing:0px;word-spacing:0px;writing-mode:lr-tb;text-anchor:start;fill:#000000;fill-opacity:1;stroke:none;stroke-width:0.26458332"
       x="72.600601"
       y="30.277855"
       id="text4677"><tspan
         sodipodi:role="line"
         id="tspan4675"
         x="72.600601"
         y="30.277855"
         style="stroke-width:0.26458332">$\phi$</tspan></text>
  </g>
</svg>
